<svg width="512" height="512" viewBox="0 0 32 32" fill="none" xmlns="http://www.w3.org/2000/svg">
<path fill-rule="evenodd" clip-rule="evenodd" d="M512 256C512 296.87 502.423 335.503 485.39 369.778H272C311.403 316.134 352 251.174 352 184.889C352 99.5891 287.016 27.781 198.652 6.44824C217.089 2.22879 236.284 0 256 0C397.385 0 512 114.615 512 256ZM288 184.889C288 114.196 223.529 56.8889 144 56.8889C37.5896 56.8889 0 177.879 0 256C0 397.385 114.615 512 256 512C331.819 512 399.939 479.04 446.814 426.667H144C149.629 420.287 155.524 413.712 161.579 406.958C217.85 344.195 288 265.952 288 184.889Z" fill="#7859CF"/>
</svg>
